<svg width="25" height="24" viewBox="0 0 25 24" fill="none" xmlns="http://www.w3.org/2000/svg">
<path d="M2.30005 22C1.89005 22 1.55005 21.66 1.55005 21.25C1.55005 20.84 1.89005 20.5 2.30005 20.5H22.3C22.71 20.5 23.05 20.84 23.05 21.25C23.05 21.66 22.71 22 22.3 22H2.30005Z" fill="#616161"/>
<path d="M10.05 22H14.55V4C14.55 2.9 14.1 2 12.75 2H11.85C10.5 2 10.05 2.9 10.05 4V22Z" fill="#616161"/>
<path opacity="0.4" d="M3.30005 22H7.30005V10C7.30005 8.9 6.90005 8 5.70005 8H4.90005C3.70005 8 3.30005 8.9 3.30005 10V22Z" fill="#616161"/>
<path opacity="0.4" d="M17.3 22H21.3V15C21.3 13.9 20.9 13 19.7 13H18.9C17.7 13 17.3 13.9 17.3 15V22Z" fill="#616161"/>
</svg>
