<svg width="25" height="24" viewBox="0 0 25 24" fill="none" xmlns="http://www.w3.org/2000/svg">
<path d="M21.0201 12.38L13.2701 20.12L14.2001 21.05C14.9801 21.83 15.7901 22.22 16.5901 22.22C17.3901 22.22 18.2001 21.83 18.9801 21.05L21.9401 18.09C23.5301 16.49 23.5301 14.88 21.9401 13.28L21.0201 12.38Z" fill="#616161"/>
<path d="M6.80003 2.92994L3.83003 5.88994C2.27003 7.45994 2.27003 9.10994 3.83003 10.6799L4.75003 11.5999L12.5 3.84994L11.59 2.92994C10.02 1.35994 8.37003 1.35994 6.80003 2.92994Z" fill="#616161"/>
<path opacity="0.4" d="M15.5601 14.27C15.1501 11.69 13.0901 9.66997 10.4901 9.30997C13.2901 6.44997 17.5901 3.41997 20.8701 2.09997C21.4501 1.87997 22.0301 2.04997 22.3901 2.40997C22.7701 2.78997 22.9501 3.35997 22.7101 3.93997C21.4001 7.20997 18.4101 11.48 15.5601 14.27Z" fill="#616161"/>
<path d="M14.08 15.5901L12.11 17.1701C11.86 17.3501 11.61 17.5001 11.33 17.6201C11.33 17.4301 11.31 17.2401 11.29 17.0401C11.18 16.2101 10.8 15.4201 10.13 14.7501C9.44004 14.0701 8.62004 13.6801 7.77004 13.5701C7.57004 13.5501 7.36004 13.5401 7.17004 13.5501C7.28004 13.2401 7.45004 12.9501 7.66004 12.7101L9.22004 10.7401C9.59004 10.2701 10.02 9.79006 10.49 9.31006C13.09 9.67006 15.15 11.6901 15.56 14.2701C15.06 14.7601 14.56 15.2101 14.08 15.5901Z" fill="#616161"/>
<path opacity="0.4" d="M10.11 20.5599C9.50003 21.1799 8.68003 21.5999 7.68003 21.7199L5.23003 21.9899C3.89003 22.1399 2.74003 20.9899 2.89003 19.6399L3.16003 17.1799C3.40003 14.9899 5.23003 13.5899 7.17003 13.5499C7.36003 13.5399 7.57003 13.5499 7.77003 13.5699C8.62003 13.6799 9.44003 14.0699 10.13 14.7499C10.8 15.4199 11.18 16.2099 11.29 17.0399C11.31 17.2399 11.33 17.4299 11.33 17.6199C11.33 18.7199 10.91 19.7699 10.11 20.5599Z" fill="#616161"/>
</svg>
