<svg width="25" height="24" viewBox="0 0 25 24" fill="none" xmlns="http://www.w3.org/2000/svg">
<path opacity="0.4" d="M21.4701 17.38C21.4701 20.14 19.2301 22.38 16.4701 22.38H7.7301C4.9701 22.38 2.7301 20.14 2.7301 17.38V11.46C3.4901 12.28 4.5701 12.75 5.7401 12.75C7.0001 12.75 8.2101 12.12 8.9701 11.11C9.6501 12.12 10.8101 12.75 12.1001 12.75C13.3801 12.75 14.5201 12.15 15.2101 11.15C15.9801 12.14 17.1701 12.75 18.4101 12.75C19.6201 12.75 20.7201 12.26 21.4701 11.39V17.38Z" fill="#616161"/>
<path d="M9.09007 1.25L8.35007 8.61C8.29007 9.29 8.39007 9.93 8.64007 10.51C9.22007 11.87 10.5801 12.75 12.1001 12.75C13.6401 12.75 14.9701 11.89 15.5701 10.52C15.7501 10.09 15.8601 9.59 15.8701 9.08V8.89L15.0901 1.25H9.09007Z" fill="#616161"/>
<path opacity="0.6" d="M22.1701 5.5C21.7501 2.48 20.3801 1.25 17.4501 1.25H13.6101L14.3501 8.75C14.3601 8.85 14.3701 8.96 14.3701 9.15C14.4301 9.67 14.5901 10.15 14.8301 10.58C15.5501 11.9 16.9501 12.75 18.4101 12.75C19.7401 12.75 20.9401 12.16 21.6901 11.12C22.2901 10.32 22.5601 9.31 22.4601 8.27L22.1701 5.5Z" fill="#616161"/>
<path opacity="0.6" d="M1.96011 5.53L1.69011 8.28C1.59011 9.35 1.88011 10.39 2.51011 11.2C3.27011 12.19 4.44011 12.75 5.74011 12.75C7.20011 12.75 8.60011 11.9 9.31011 10.6C9.57011 10.15 9.74011 9.63 9.79011 9.09L10.5701 1.26H6.69011V1.25C3.75011 1.25 2.39011 2.48 1.96011 5.53Z" fill="#616161"/>
<path d="M9.22009 19.15V22.38H14.9701V19.5C14.9801 17.41 13.7501 16.42 11.4501 16.66C10.1801 16.79 9.22009 17.87 9.22009 19.15Z" fill="#616161"/>
</svg>
